<svg width="32" height="30" viewBox="0 0 32 30" fill="none" xmlns="http://www.w3.org/2000/svg">
<path fill-rule="evenodd" clip-rule="evenodd" d="M9.40803 8.63942C11.2668 6.8798 13.5064 6 16.127 6C18.7476 6 20.9872 6.8798 22.846 8.63942C24.7048 10.399 25.6342 12.5192 25.6342 15C25.6342 17.4808 24.7048 19.601 22.846 21.3606C20.9872 23.1202 18.7476 24 16.127 24C13.5064 24 11.2668 23.1202 9.40803 21.3606C7.54925 19.601 6.61987 17.4808 6.61987 15C6.61987 12.5192 7.54925 10.399 9.40803 8.63942ZM15.1215 22.6587L15.6243 21.7067C15.6852 21.5913 15.7157 21.4688 15.7157 21.3389C15.7157 21.2091 15.6395 21.0865 15.4871 20.9712C14.9996 20.5673 14.6492 20.2644 14.4359 20.0625C14.3749 20.0048 14.2835 19.8389 14.1616 19.5649C14.0397 19.2909 13.994 19.125 14.0245 19.0673C14.1769 18.8077 14.2987 18.4615 14.3902 18.0288C14.4816 17.6827 14.2835 17.3654 13.796 17.0769C13.5827 16.9615 13.3694 16.8173 13.1561 16.6442C12.9428 16.4712 12.7066 16.2837 12.4476 16.0817C12.1886 15.8798 11.9829 15.7212 11.8305 15.6058C11.282 15.2308 10.9773 14.9567 10.9164 14.7837C10.6421 14.0336 10.4898 13.6298 10.4593 13.5721C10.1851 13.1971 10.0175 12.8005 9.95653 12.3822C9.89559 11.9639 9.91083 11.524 10.0022 11.0625C10.0022 10.8606 9.97177 10.5 9.91083 9.98077C8.63101 11.3654 7.99112 13.0385 7.99112 15C7.99112 17.1346 8.78337 18.9519 10.3679 20.4519C11.6782 21.6923 13.2627 22.4279 15.1215 22.6587ZM21.8861 20.4519C22.9527 19.4423 23.6687 18.2596 24.0344 16.9038L23.166 16.8173C22.526 16.125 22.1756 15.476 22.1147 14.8702C22.0842 14.6106 22.069 14.2067 22.069 13.6587C22.069 13.1106 22.0385 12.6923 21.9776 12.4038C21.9166 12.1442 21.7109 11.7837 21.3605 11.3221C21.0101 10.8606 20.8044 10.5577 20.7435 10.4135C20.652 10.2115 20.5073 9.90866 20.3092 9.50481C20.1112 9.10096 19.9512 8.79808 19.8293 8.59615C19.8598 8.59615 19.9131 8.61058 19.9893 8.63942C20.0655 8.66827 20.1188 8.69711 20.1493 8.72596C20.454 8.66827 20.6673 8.63942 20.7892 8.63942C19.8141 7.97596 18.6562 7.55769 17.3154 7.38461V7.73077L17.4982 8.12019L16.8583 8.68269L16.447 8.55288L15.9899 8.12019L15.5328 7.60096L14.8929 7.38461C14.253 7.47115 13.5674 7.65865 12.8361 7.94711V8.25C12.9275 8.19231 13.0951 8.13462 13.3389 8.07692C13.5826 8.01923 13.7655 7.96154 13.8873 7.90385C13.9483 7.875 14.1921 8.00481 14.6187 8.29327C14.5882 8.32212 14.4206 8.45913 14.1159 8.70433C13.8112 8.94952 13.6436 9.11538 13.6131 9.20192C13.6131 9.23077 13.6664 9.29567 13.7731 9.39663C13.8797 9.4976 13.9331 9.57692 13.9331 9.63461C13.9331 9.72115 13.9254 9.84375 13.9102 10.0024C13.895 10.1611 13.8873 10.2837 13.8873 10.3702C14.5273 9.76442 14.8624 9.46154 14.8929 9.46154C15.1672 9.40385 15.5023 9.52644 15.8985 9.82933C16.2946 10.1322 16.5231 10.3846 16.5841 10.5865C16.6146 10.6731 16.5536 10.7957 16.4013 10.9543C16.2489 11.113 16.0051 11.3221 15.6699 11.5817C15.3347 11.8413 15.1367 12 15.0757 12.0577C15.0148 12.1154 14.8777 12.2091 14.6644 12.3389C14.4511 12.4688 14.2987 12.5913 14.2073 12.7067C14.1159 12.8221 14.1006 12.9519 14.1616 13.0962C14.4663 13.6731 14.5425 14.0192 14.3901 14.1346C14.3292 14.1923 14.253 14.1995 14.1616 14.1562C14.0702 14.113 14.0016 14.0625 13.9559 14.0048C13.9102 13.9471 13.8493 13.875 13.7731 13.7885C13.6969 13.7019 13.6436 13.6442 13.6131 13.6154C13.4303 13.4135 12.8513 13.3125 11.8762 13.3125C11.8762 14.2356 12.1048 14.8558 12.5618 15.1731C13.8112 16.0385 14.5272 16.5144 14.7101 16.601C14.8929 16.6875 15.2586 16.6875 15.8071 16.601C16.3555 16.5144 16.706 16.5288 16.8583 16.6442C17.8639 17.3077 18.58 17.726 19.0066 17.899C19.2808 17.9856 19.5855 18.1803 19.9207 18.4832C20.2559 18.7861 20.3473 19.0385 20.195 19.2404C19.7988 19.8173 19.5855 20.149 19.5551 20.2356C19.3113 20.726 19.0066 21.0865 18.6409 21.3173C18.2448 21.6058 17.9248 22.024 17.6811 22.5721C19.3265 22.2548 20.7282 21.5481 21.8861 20.4519Z" fill="#1D355D" fill-opacity="0.5"/>
</svg>
