<svg width="159" height="28" viewBox="0 0 159 28" fill="none" xmlns="http://www.w3.org/2000/svg">
<path d="M46.1517 4.4185C43.9309 3.70785 41.7694 3.82629 40.3777 5.36603C39.3117 6.4024 38.986 7.73487 38.986 9.45227C38.986 9.86681 38.986 10.311 38.986 10.7255H37.1206C36.4691 10.7255 35.9954 11.2289 35.9954 11.8507C35.9954 12.5021 36.4691 12.9759 37.1206 12.9759H38.986V23.7837C38.986 24.4647 39.5486 25.0273 40.2296 24.9977C40.9107 24.9977 41.4437 24.4647 41.4437 23.7837V12.9759H44.9969C45.6187 12.9759 46.1221 12.5021 46.1221 11.8507C46.1221 11.2289 45.6187 10.7255 44.9969 10.7255H41.4437V9.45227C41.4437 8.23824 41.6509 7.43876 42.1839 6.87616C42.9834 5.98785 44.227 6.10629 45.5595 6.49123C46.1813 6.66889 46.8328 6.25435 46.9216 5.63253C47.0104 5.06993 46.6847 4.59616 46.1517 4.4185Z" fill="#1D355D"/>
<path d="M49.7357 24.9977C50.4168 24.9977 50.9794 24.4647 50.9794 23.7837V5.33642C50.9794 4.65538 50.4168 4.09279 49.7357 4.09279C49.0547 4.09279 48.5217 4.65538 48.5217 5.33642V23.7837C48.5217 24.4647 49.0547 24.9977 49.7357 24.9977Z" fill="#1D355D"/>
<path d="M60.1685 25.1754C64.1363 25.1754 67.3934 22.0959 67.3934 17.7728C67.3934 13.4497 64.1363 10.3702 60.1685 10.3702C56.1711 10.3702 52.914 13.4497 52.914 17.7728C52.914 22.0959 56.1711 25.1754 60.1685 25.1754ZM60.1685 22.925C57.5628 22.925 55.4605 20.7931 55.4605 17.7728C55.4605 14.7821 57.5628 12.6206 60.1685 12.6206C62.7446 12.6206 64.847 14.7821 64.847 17.7728C64.847 20.7931 62.7446 22.925 60.1685 22.925Z" fill="#1D355D"/>
<path d="M91.7033 10.5479C91.0815 10.311 90.3709 10.6071 90.1044 11.2289L85.6628 21.4149L81.2213 11.2289C81.014 10.7551 80.5402 10.459 80.0665 10.459C79.5631 10.459 79.0893 10.7551 78.882 11.2289L74.4405 21.4149L69.9989 11.2289C69.7324 10.6071 69.0218 10.311 68.4 10.5479C67.7781 10.8143 67.4524 11.5546 67.7189 12.1764L73.2561 24.3759C73.4633 24.8793 73.9371 25.1754 74.4405 25.1458C74.9439 25.1754 75.4472 24.8793 75.6545 24.3759L80.0665 14.4268L84.4488 24.3759C84.6857 24.8793 85.1594 25.1754 85.6628 25.1458C86.1662 25.1754 86.64 24.8793 86.8768 24.3759L92.3844 12.1764C92.6509 11.5546 92.3548 10.8143 91.7033 10.5479Z" fill="#1D355D"/>
<path d="M99.9778 25.1754C101.784 25.1754 103.442 24.5536 104.745 23.3988C105.012 23.1619 105.16 22.8658 105.16 22.4808C105.16 21.859 104.656 21.326 104.005 21.326C103.709 21.326 103.442 21.4445 103.265 21.6221C102.347 22.4512 101.192 22.925 99.9778 22.925C97.3721 22.925 95.2698 20.7931 95.2698 17.7728C95.2698 14.7821 97.3721 12.6206 99.9778 12.6206C101.192 12.6206 102.347 13.0943 103.265 13.953C103.442 14.1307 103.709 14.2195 104.005 14.2195C104.656 14.2195 105.16 13.7162 105.16 13.0647C105.16 12.7094 105.012 12.3837 104.745 12.1764C103.442 11.0216 101.784 10.3702 99.9778 10.3702C95.9804 10.3702 92.7529 13.4497 92.7529 17.7728C92.7529 22.0959 95.9804 25.1754 99.9778 25.1754Z" fill="#1D355D"/>
<path d="M119.846 10.5479C119.165 10.5479 118.632 11.1105 118.632 11.7915V12.8279C117.388 11.2881 115.552 10.3702 113.539 10.3702C109.808 10.3702 106.758 13.4497 106.758 17.7728C106.758 22.0959 109.808 25.1754 113.539 25.1754C115.552 25.1754 117.388 24.2871 118.632 22.7473V23.7837C118.632 24.4647 119.165 24.9977 119.846 24.9977C120.527 24.9977 121.089 24.4647 121.089 23.7837V11.7915C121.089 11.1105 120.527 10.5479 119.846 10.5479ZM114.012 22.925C111.407 22.925 109.304 20.7931 109.304 17.7728C109.304 14.7821 111.407 12.6206 114.012 12.6206C116.589 12.6206 118.691 14.7821 118.691 17.7728C118.691 20.7931 116.589 22.925 114.012 22.925Z" fill="#1D355D"/>
<path d="M130.479 10.3702C128.525 10.4294 126.956 11.2881 125.949 12.7094V11.7619C125.949 11.1104 125.416 10.5479 124.735 10.5479C124.054 10.5479 123.521 11.1104 123.521 11.7619V23.7837C123.521 24.4647 124.054 24.9977 124.735 24.9977C125.416 24.9977 125.949 24.4647 125.949 23.7837V17.6543C125.949 14.4564 127.755 12.8279 130.479 12.8279C131.161 12.8279 131.694 12.2653 131.694 11.6138C131.694 10.9328 131.161 10.3702 130.479 10.3702Z" fill="#1D355D"/>
<path d="M145.226 4.09279C144.545 4.09279 144.012 4.65538 144.012 5.33642V12.8279C142.768 11.2881 140.932 10.3702 138.919 10.3702C135.188 10.3702 132.138 13.4497 132.138 17.7728C132.138 22.0959 135.188 25.1754 138.919 25.1754C140.932 25.1754 142.768 24.2871 144.012 22.7473V23.7837C144.012 24.4647 144.545 24.9977 145.226 24.9977C145.907 24.9977 146.469 24.4647 146.469 23.7837V5.33642C146.469 4.65538 145.907 4.09279 145.226 4.09279ZM139.392 22.925C136.787 22.925 134.684 20.7931 134.684 17.7728C134.684 14.7821 136.787 12.6206 139.392 12.6206C141.969 12.6206 144.071 14.7821 144.071 17.7728C144.071 20.7931 141.969 22.925 139.392 22.925Z" fill="#1D355D"/>
<path d="M153.372 25.1754C156.185 25.205 158.761 23.7541 158.821 21.0003C158.88 15.9073 150.648 17.7728 150.767 14.6637C150.796 13.3905 151.981 12.5021 153.609 12.5614C154.586 12.5614 155.83 12.9167 156.896 13.5089C157.044 13.5681 157.192 13.5977 157.37 13.6273C157.962 13.6273 158.465 13.1536 158.465 12.5614C158.495 12.1468 158.258 11.7619 157.903 11.5842C156.659 10.9032 155.03 10.4294 153.579 10.3702C150.53 10.2814 148.398 12.0284 148.309 14.6341C148.161 19.9343 156.452 18.1577 156.363 21.0892C156.333 22.2736 155.001 23.0731 153.224 23.0138C152.04 22.9842 150.944 22.6585 149.849 22.1551C149.701 22.0959 149.582 22.0663 149.404 22.0367C148.812 22.0367 148.309 22.5105 148.309 23.1027C148.309 23.5172 148.516 23.9021 148.871 24.0798C150.234 24.7905 151.744 25.1458 153.372 25.1754Z" fill="#1D355D"/>
<path d="M7.0582 8.21849C6.56249 6.36849 7.66036 4.46693 9.51036 3.97122L21.8786 0.657173L26.2973 17.1481C26.793 18.9981 25.6951 20.8997 23.8451 21.3954L14.8266 23.8119C12.9766 24.3076 11.0751 23.2097 10.5794 21.3597L7.0582 8.21849Z" fill="url(#paint0_linear)"/>
<path fill-rule="evenodd" clip-rule="evenodd" d="M6.1841 10.1098L3.34972 10.8693C1.49972 11.365 0.401849 13.2666 0.897554 15.1166L3.45213 24.6504C3.94784 26.5004 5.84941 27.5982 7.69941 27.1025L13.8835 25.4455C12.0335 25.9412 10.1319 24.8434 9.63623 22.9934L6.1841 10.1098Z" fill="#1D355D"/>
<defs>
<linearGradient id="paint0_linear" x1="13.371" y1="-3.29106" x2="0.994726" y2="14.7969" gradientUnits="userSpaceOnUse">
<stop stop-color="#FFB75F"/>
<stop offset="1" stop-color="#FF8D17"/>
</linearGradient>
</defs>
</svg>
